<svg width="57" height="57" viewBox="0 0 57 57" fill="none" xmlns="http://www.w3.org/2000/svg">
<path d="M38 20.1875C41.1659 24.4103 41.1659 32.5897 38 36.8125M45.125 11.875C54.5965 20.919 54.6535 36.1404 45.125 45.125M4.75 35.5276V21.47C4.75 20.1067 5.814 19 7.125 19H15.6417C15.956 18.9989 16.2669 18.9341 16.5554 18.8096C16.844 18.6851 17.1044 18.5035 17.3209 18.2756L24.4459 10.2291C25.9421 8.67113 28.5 9.7755 28.5 11.9771V45.0229C28.5 47.2411 25.9113 48.336 24.4245 46.7471L17.3233 38.7457C17.1062 38.5114 16.8431 38.3243 16.5506 38.196C16.258 38.0677 15.9422 38.001 15.6228 38H7.125C5.814 38 4.75 36.8932 4.75 35.5276Z" stroke="white" stroke-width="2" stroke-linecap="round" stroke-linejoin="round"/>
</svg>
