<svg width="57" height="57" viewBox="0 0 57 57" fill="none" xmlns="http://www.w3.org/2000/svg">
<path d="M4.75 21.47V35.5277C4.75 36.8933 5.814 38 7.125 38H15.6228C15.9422 38.001 16.258 38.0677 16.5506 38.196C16.8431 38.3243 17.1062 38.5114 17.3233 38.7458L24.4245 46.7472C25.9113 48.336 28.5 47.2412 28.5 45.0229V11.9772C28.5 9.77553 25.9421 8.67116 24.4459 10.2292L17.3209 18.2757C17.1044 18.5035 16.844 18.6852 16.5554 18.8097C16.2669 18.9342 15.956 18.9989 15.6418 19H7.125C5.814 19 4.75 20.1068 4.75 21.47Z" stroke="white" stroke-width="2" stroke-linecap="round" stroke-linejoin="round"/>
</svg>
